<svg xmlns="http://www.w3.org/2000/svg" viewBox="0 0 100 100">
  <defs>
    <linearGradient id="walnut" x1="0" y1="0" x2="0" y2="1">
      <stop offset="0" stop-color="#31261e"/>
      <stop offset="1" stop-color="#1b1410"/>
    </linearGradient>
    <linearGradient id="cream" x1="0" y1="0" x2="0" y2="1">
      <stop offset="0" stop-color="#f6ecdc"/>
      <stop offset="1" stop-color="#e2c9a4"/>
    </linearGradient>
  </defs>
  <rect x="4" y="4" width="92" height="92" rx="22" fill="url(#walnut)"/>
  <path fill="url(#cream)" d="M 36 78 L 72 78 C 72 70 71 63 68 55 C 74 48 76 40 74 32 C 73 26.5 70 21.5 64 18.6 L 66.2 10.2 C 66.6 8.2 64.2 7.2 62.9 8.8 L 56.8 15.2 C 55.4 14.8 54 15.2 53.6 16.6 L 52.5 20 C 46 22 40 26.5 35.5 32.5 C 30.5 39 27.5 47 27 54 C 26.8 56.5 28 58.5 30.3 59.3 L 38 62 C 40.5 62.8 43 62 44.6 60 L 49 54.5 C 50 53.3 51.7 53.6 52.3 55 C 52.8 56.2 52.4 57.4 51.4 58.4 L 43 66.5 C 39 70.3 36.5 73.5 36 78 Z"/>
  <circle cx="59.5" cy="30" r="2.6" fill="#1b1410"/>
</svg>